<svg width="298" height="204" viewBox="0 0 298 204" fill="none" xmlns="http://www.w3.org/2000/svg">
<path d="M72.5825 -39.4912H78.0924C104.176 -39.4912 125.319 -18.3564 125.319 7.71725V100.859H25.3558V7.71725C25.3558 -18.3564 46.5016 -39.4912 72.5825 -39.4912Z" fill="#FFB7D5"/>
<path d="M93.5127 45.4013V102.318H49.1057V45.4013H93.5127ZM94.6624 44.2521H47.956V103.467H94.6624V44.2521Z" fill="#CA7358"/>
<path d="M94.6624 44.2521H47.956V56.4945H94.6624V44.2521Z" fill="#CA7358"/>
<path d="M47.7318 14.6558V102.602H20.9812V14.6558H47.7318ZM48.8815 13.5066H19.8315V103.752H48.8815V13.5066Z" fill="#CA7358"/>
<path d="M130.179 -3.13737V102.307H94.8866V-3.13737H130.179ZM131.329 -4.28662H93.7369V103.456H131.329V-4.28662Z" fill="#CA7358"/>
<path d="M108.91 10.0905H109.459C112.06 10.0905 114.167 12.1965 114.167 14.7966V25.7462H104.202V14.7966C104.202 12.1965 106.312 10.0905 108.91 10.0905Z" fill="#CA7358"/>
<path d="M103.064 18.6294H115.308" stroke="#FFB7D5" stroke-width="4" stroke-linecap="round" stroke-linejoin="round"/>
<path d="M108.91 38.1782H109.459C112.06 38.1782 114.167 40.2842 114.167 42.8844V53.8397H104.202V42.8873C104.202 40.2871 106.309 38.1811 108.91 38.1811V38.1782Z" fill="#F5EBDD"/>
<path d="M103.064 46.7201H115.308" stroke="#FFB7D5" stroke-width="4" stroke-linecap="round" stroke-linejoin="round"/>
<path d="M108.91 66.2689H109.459C112.06 66.2689 114.167 68.3749 114.167 70.9751V81.9246H104.202V70.9751C104.202 68.3749 106.312 66.2689 108.91 66.2689Z" fill="#F5EBDD"/>
<path d="M103.064 74.8077H115.308" stroke="#FFB7D5" stroke-width="4" stroke-linecap="round" stroke-linejoin="round"/>
<path d="M108.91 94.351H109.459C112.06 94.351 114.167 96.457 114.167 99.0571V109.113H104.202V99.0571C104.202 96.457 106.312 94.351 108.91 94.351Z" fill="#30242A"/>
<path d="M28.4312 33.3628H28.9802C31.5814 33.3628 33.6882 35.4688 33.6882 38.069V49.0185H23.7232V38.069C23.7232 35.4688 25.8329 33.3628 28.4312 33.3628Z" fill="#F5EBDD"/>
<path d="M22.585 41.9019H34.8293" stroke="#FFB7D5" stroke-width="4" stroke-linecap="round" stroke-linejoin="round"/>
<path d="M28.4312 61.4507H28.9802C31.5814 61.4507 33.6882 63.5567 33.6882 66.1569V77.1121H23.7232V66.1598C23.7203 63.5596 25.8272 61.4536 28.4283 61.4507C28.4312 61.4507 28.4312 61.4507 28.4312 61.4507Z" fill="#F5EBDD"/>
<path d="M22.585 69.9924H34.8293" stroke="#FFB7D5" stroke-width="4" stroke-linecap="round" stroke-linejoin="round"/>
<path d="M28.4312 89.5413H28.9802C31.5814 89.5413 33.6882 91.6473 33.6882 94.2475V105.197H23.7232V94.2475C23.7232 91.6473 25.8329 89.5413 28.4312 89.5413Z" fill="#CA7358"/>
<path d="M22.585 98.0802H34.8293" stroke="#FFB7D5" stroke-width="4" stroke-linecap="round" stroke-linejoin="round"/>
<path d="M131.329 -4.28662H93.7369V0.41095H131.329V-4.28662Z" fill="#CA7358"/>
<path d="M48.8815 11.2283H19.8315V15.9259H48.8815V11.2283Z" fill="#CA7358"/>
<path d="M66.3253 67.5963H56.3574V80.4076H66.3253V67.5963Z" fill="#F5EBDD"/>
<path d="M55.2163 73.2908H67.4635" stroke="#FFB7D5" stroke-width="4" stroke-linecap="round" stroke-linejoin="round"/>
<path d="M61.3413 80.9764V73.2908" stroke="#FFB7D5" stroke-width="4" stroke-linecap="round" stroke-linejoin="round"/>
<path d="M66.3253 90.7336H56.3574V103.545H66.3253V90.7336Z" fill="#CA7358"/>
<path d="M55.2163 96.4253H67.4635" stroke="#FFB7D5" stroke-width="4" stroke-linecap="round" stroke-linejoin="round"/>
<path d="M61.3413 104.114V96.4253" stroke="#FFB7D5" stroke-width="4" stroke-linecap="round" stroke-linejoin="round"/>
<path d="M85.12 67.5963H75.1521V80.4076H85.12V67.5963Z" fill="#30242A"/>
<path d="M74.0139 73.2908H86.261" stroke="#FFB7D5" stroke-width="4" stroke-linecap="round" stroke-linejoin="round"/>
<path d="M80.136 80.9764V73.2908" stroke="#FFB7D5" stroke-width="4" stroke-linecap="round" stroke-linejoin="round"/>
<path d="M85.12 90.7336H75.1521V103.545H85.12V90.7336Z" fill="#F5EBDD"/>
<path d="M74.0139 96.4253H86.261" stroke="#FFB7D5" stroke-width="4" stroke-linecap="round" stroke-linejoin="round"/>
<path d="M80.136 104.114V96.4253" stroke="#FFB7D5" stroke-width="4" stroke-linecap="round" stroke-linejoin="round"/>
<path d="M138.135 100.905H12.5395V109.446H138.135V100.905Z" fill="#F5EBDD"/>
<path d="M77.3221 -47.9871H73.3528C42.1356 -47.9871 16.8135 -22.6805 16.8135 8.53323V109.446H133.864V8.53323C133.864 -22.6805 108.548 -47.9871 77.3221 -47.9871ZM71.0649 100.904H25.3644V29.7341H71.0649V100.904ZM71.0649 21.1923H25.3644V8.82341C25.3644 -16.8308 45.4381 -38.0029 71.0649 -39.3763V21.1923ZM125.319 100.904H79.6186V29.7341H125.319V100.904ZM125.319 21.1923H79.6186V-39.3763C105.245 -38.0029 125.319 -16.8308 125.319 8.82341V21.1923Z" fill="#F5EBDD"/>
<path d="M105.412 93.4027C105.412 93.4027 85.6776 46.0535 84.8153 33.7105C81.918 -7.83216 127.003 15.8338 134.054 19.9194C139.187 22.896 159.319 34.1558 163.337 38.1696C165.924 40.7554 164.124 42.6718 164.124 42.6718C164.124 42.6718 167.145 46.6367 162.897 47.1079C165.918 51.0728 161.101 51.6101 161.101 51.6101C161.101 51.6101 162.391 55.4802 157.387 54.3166C151.995 53.061 111.112 35.3712 111.112 35.3712C111.112 35.3712 120.246 64.1973 123.097 73.3166L105.412 93.4027Z" fill="#A15842"/>
<path d="M149.483 51.0155C150.454 50.823 151.11 50.2627 150.92 49.0589C150.302 45.1054 143.694 41.3704 143.694 41.3704C143.694 41.3704 146.344 34.9949 141.142 30.0703" stroke="#30242A" stroke-width="4" stroke-miterlimit="10" stroke-linecap="round"/>
<path d="M161.034 51.4061C158.663 50.0184 149.972 44.9359 147.911 43.8785" stroke="#30242A" stroke-width="4" stroke-miterlimit="10" stroke-linecap="round"/>
<path d="M162.977 46.9787C160.011 45.2031 152.785 40.7067 149.802 39.1437" stroke="#30242A" stroke-width="4" stroke-miterlimit="10" stroke-linecap="round"/>
<path d="M164.055 42.123C160.319 39.6464 153.271 35.058 150.483 33.6501" stroke="#30242A" stroke-width="4" stroke-miterlimit="10" stroke-linecap="round"/>
<path d="M147.577 43.3326C148.572 41.534 150.273 37.9599 150.365 32.2308" stroke="#30242A" stroke-width="4" stroke-miterlimit="10" stroke-linecap="round"/>
<path d="M111.003 36.0435L104.271 32.9865" stroke="#30242A" stroke-width="4" stroke-linecap="round" stroke-linejoin="round"/>
<path d="M56.3286 170.397H8.44084V175.933H56.3286V170.397Z" fill="#A15842"/>
<path d="M64.2156 199.12L52.3536 127.967H59.6197C61.2379 127.967 62.5514 126.654 62.5514 125.036C62.5514 123.418 61.2379 122.105 59.6197 122.105H5.21883C3.60063 122.105 2.2871 123.418 2.2871 125.036C2.2871 126.654 3.60063 127.967 5.21883 127.967H12.4044L0.542433 199.114C0.312494 200.453 1.21501 201.723 2.5544 201.953C2.69237 201.976 2.83033 201.987 2.9683 201.987C4.12662 201.987 5.12685 201.18 5.37404 200.051L21.099 127.967H43.6705L59.3811 200.048C59.6254 201.177 60.6256 201.984 61.784 201.984C63.1435 201.987 64.2472 200.887 64.2501 199.531C64.2501 199.393 64.2386 199.255 64.2156 199.12Z" fill="#FFBE21"/>
<path d="M59.6197 127.967C61.2379 127.967 62.5514 126.654 62.5514 125.036C62.5514 123.418 61.2379 122.105 59.6197 122.105H5.21882C3.60062 122.105 2.28709 123.418 2.28709 125.036C2.28709 126.654 3.60062 127.967 5.21882 127.967H12.4044L12.3901 128.056H21.0674L21.0875 127.967H43.659L43.6791 128.056H52.3679L52.3536 127.967H59.6197Z" fill="#A15842"/>
<path d="M243.071 67.4698H242.999C242.488 68.395 239.116 74.0522 233.192 74.0522C227.269 74.0522 223.897 68.395 223.383 67.4698H223.314L214.093 109.076H252.292L243.071 67.4698Z" fill="#3EC1F3"/>
<path d="M218.462 89.6016C226.286 90.4204 238.435 97.405 242.657 108.955" stroke="#F5EBDD" stroke-width="4" stroke-miterlimit="10" stroke-linecap="round"/>
<path d="M223.532 109.291C224.409 99.8817 231.867 84.3294 245.29 79.4652" stroke="#F5EBDD" stroke-width="4" stroke-miterlimit="10" stroke-linecap="round"/>
<path d="M233.052 70.9866C229.755 74.4602 225.599 77.6953 220.896 79.8674" stroke="#F5EBDD" stroke-width="4" stroke-miterlimit="10" stroke-linecap="round"/>
<path d="M233.192 74.0522C239.116 74.0522 242.488 68.395 242.999 67.4698H223.383C223.897 68.395 227.266 74.0522 233.192 74.0522Z" fill="#30242A"/>
<path d="M179.369 201.984C177.975 201.984 176.843 200.855 176.843 199.459C176.843 199.192 176.886 198.924 176.969 198.669L184.896 174.557C185.241 173.526 186.207 172.831 187.296 172.833H192.844C194.238 172.833 195.37 173.963 195.373 175.356C195.373 175.787 195.264 176.212 195.051 176.591L181.577 200.703C181.125 201.496 180.283 201.987 179.369 201.984Z" fill="#A15842"/>
<path d="M285.42 201.984C286.814 201.984 287.947 200.855 287.947 199.459C287.947 199.192 287.904 198.924 287.82 198.669L279.893 174.557C279.548 173.526 278.58 172.831 277.493 172.833H271.943C270.549 172.833 269.417 173.965 269.417 175.359C269.417 175.79 269.529 176.215 269.738 176.591L283.213 200.703C283.664 201.496 284.509 201.987 285.42 201.984Z" fill="#A15842"/>
<path d="M297.656 108.604H167.579V183.042H297.656V108.604Z" fill="#FFB7D5"/>
<path d="M287.866 118.198V173.442H177.369V118.198H287.866ZM289.016 117.049H176.219V174.592H289.016V117.049Z" fill="#CA7358"/>
<path d="M232.497 116.945V174.701" stroke="#CA7358" stroke-width="4" stroke-miterlimit="10"/>
<path d="M245.569 149.17C247.418 149.17 248.917 147.672 248.917 145.823C248.917 143.974 247.418 142.476 245.569 142.476C243.72 142.476 242.22 143.974 242.22 145.823C242.22 147.672 243.72 149.17 245.569 149.17Z" fill="#30242A"/>
<path d="M219.666 149.17C221.516 149.17 223.015 147.672 223.015 145.823C223.015 143.974 221.516 142.476 219.666 142.476C217.817 142.476 216.318 143.974 216.318 145.823C216.318 147.672 217.817 149.17 219.666 149.17Z" fill="#30242A"/>
<path d="M40.848 86.3635C45.4956 86.3635 49.2609 90.1273 49.2609 94.7732V122.186H32.435V94.7732C32.435 90.1273 36.2032 86.3635 40.848 86.3635Z" fill="#4756DF"/>
<path d="M49.2637 97.1062H32.435V112.779H49.2637V97.1062Z" fill="#3EC1F3"/>
<path d="M44.5873 82.0022H37.1086V87.2974H44.5873V82.0022Z" fill="#30242A"/>
<path d="M143.757 37.5433C149.504 37.5433 154.162 32.8867 154.162 27.1426C154.162 21.3984 149.504 16.7418 143.757 16.7418C138.011 16.7418 133.353 21.3984 133.353 27.1426C133.353 32.8867 138.011 37.5433 143.757 37.5433Z" fill="#30242A"/>
<path d="M135.678 33.5726C136.509 33.949 129.464 17.4831 125.934 20.0919C122.614 22.5369 131.476 31.662 135.678 33.5726Z" fill="#FFBE21"/>
<path d="M134.784 33.541C135.474 34.403 152.101 28.944 149.88 25.5595C147.747 22.3128 134.094 32.6848 134.784 33.541Z" fill="#FFBE21"/>
<path d="M155.162 21.5859C158.863 21.5859 161.862 18.5875 161.862 14.8887C161.862 11.1899 158.863 8.19141 155.162 8.19141C151.462 8.19141 148.463 11.1899 148.463 14.8887C148.463 18.5875 151.462 21.5859 155.162 21.5859Z" fill="#30242A"/>
<path d="M109.404 133.586H143.617L145.422 125.036H104.199L109.404 133.586Z" fill="#CA7358"/>
<path d="M109.106 105.372C109.106 105.372 116.093 96.2529 129.205 95.3967L137.911 76.7012C135.586 76.3306 133.91 76.095 133.91 76.095C134.255 75.2618 135.428 72.5036 136.845 69.1018C134.281 67.398 130.093 64.0479 129.125 59.8216C132.2 59.359 138.322 56.4571 135.905 51.3803C132.944 45.1542 125.109 49.9437 125.109 49.9437C122.729 47.2459 121.212 43.9015 120.746 40.336C119.795 40.4337 117.07 40.1435 115.136 39.0977L115.006 39.0229C113.972 41.0543 113.043 43.1373 112.224 45.2663C112.008 45.8122 111.802 46.3408 111.583 46.8436C111.583 46.8436 108.878 46.3839 108.324 47.5016C107.637 48.8807 109.695 50.662 109.695 50.662C108.051 53.7535 106.593 56.2847 107.122 59.4912C107.588 62.3212 110.258 65.7603 116.55 66.335L113.388 76.3076L101.604 96.7614C103.915 98.1147 107.019 100.692 109.106 105.372Z" fill="#CA7358"/>
<path d="M192.367 65.3322C188.656 60.7036 175.409 41.8041 170.985 38.2587C168.134 35.9774 166.424 37.9714 166.424 37.9714C166.424 37.9714 162.147 35.4057 162.147 39.6809C157.87 37.1152 157.87 41.9593 157.87 41.9593C157.87 41.9593 153.878 41.0974 155.591 45.9501C157.433 51.1677 178.113 88.8287 178.113 88.8287C178.113 88.8287 156.729 80.85 148.463 78.7239C146.945 78.3332 145.085 77.9482 143.208 77.5976C141.998 80.4306 140.107 85.0678 137.058 92.8252C132.919 103.327 134.931 113.825 146.908 117.991L149.032 107.935C149.032 107.935 171.163 116.25 183.523 115.914C225.438 114.776 197.5 71.7422 192.367 65.3322Z" fill="#CA7358"/>
<path d="M120.746 40.336C121.209 43.913 122.732 47.266 125.121 49.9696C125.121 49.9696 132.956 45.1657 135.916 51.4062C138.334 56.483 132.212 59.3848 129.136 59.8474C130.105 64.0738 134.293 67.4239 136.856 69.1276C138.96 64.0738 141.599 57.5949 142.841 53.9C144.677 48.4238 145.626 39.9366 137.379 33.8053C129.662 28.0792 120.818 31.8775 118.823 33.8714C117.639 35.0551 116.524 36.1699 115.018 39.0431L115.147 39.1178C117.07 40.132 119.795 40.4222 120.746 40.336Z" fill="#30242A"/>
<path d="M137.058 92.8338C140.107 85.0936 141.998 80.4449 143.208 77.6062C141.357 77.2586 139.492 76.9454 137.923 76.6954L129.225 95.3967C116.113 96.2586 109.126 105.372 109.126 105.372C107.027 100.692 103.923 98.1147 101.627 96.7528L98.9997 101.312C96.2691 106.203 96.3783 112.182 99.2871 116.965L104.196 125.03H145.422L146.908 117.994C134.931 113.834 132.919 103.335 137.058 92.8338Z" fill="#FFBE21"/>
<path d="M116.728 66.924C118.516 66.9153 120.295 66.651 122.011 66.1425" stroke="#30242A" stroke-width="4" stroke-miterlimit="10" stroke-linecap="round"/>
<path d="M158.695 51.7854C158.905 51.0557 159.422 50.5816 160.437 50.6534C164.429 50.9407 168.703 57.2099 168.703 57.2099C168.703 57.2099 174.839 54.0495 180.183 58.8045" stroke="#30242A" stroke-width="4" stroke-miterlimit="10" stroke-linecap="round"/>
<path d="M158.451 41.8041C160.681 45.3179 164.826 51.8601 165.852 53.5035" stroke="#30242A" stroke-width="4" stroke-miterlimit="10" stroke-linecap="round"/>
<path d="M162.566 39.3649C164.866 42.7494 168.89 48.5244 170.416 50.9407" stroke="#30242A" stroke-width="4" stroke-miterlimit="10" stroke-linecap="round"/>
<path d="M167.068 38.0375C169.942 41.7036 174.345 47.3924 175.831 49.8173" stroke="#30242A" stroke-width="4" stroke-miterlimit="10" stroke-linecap="round"/>
<path d="M166.424 53.5035C168.148 52.3543 171.554 50.3689 177.257 49.8" stroke="#30242A" stroke-width="4" stroke-miterlimit="10" stroke-linecap="round"/>
<path d="M133.844 75.4859L128.791 74.8796" stroke="#30242A" stroke-width="4" stroke-miterlimit="10" stroke-linecap="round"/>
<path d="M115.961 130.736L115.676 130.167" stroke="#30242A" stroke-width="4" stroke-miterlimit="10" stroke-linecap="round"/>
<path d="M148.75 108.487L145.896 107.366" stroke="#30242A" stroke-width="4" stroke-miterlimit="10" stroke-linecap="round"/>
<path d="M184.669 90.837L178.188 88.2914" stroke="#30242A" stroke-width="4" stroke-miterlimit="10" stroke-linecap="round"/>
<path d="M145.422 125.036H104.199" stroke="#30242A" stroke-width="4" stroke-linecap="round" stroke-linejoin="round"/>
<path d="M128.791 95.3966L124.626 104.694C123.35 107.538 120.522 109.369 117.403 109.369H96.9963" stroke="#30242A" stroke-width="4" stroke-linecap="round" stroke-linejoin="round"/>
<path d="M111.253 54.127C111.744 54.5494 113.739 55.124 114.805 53.6846" stroke="#30242A" stroke-width="4" stroke-miterlimit="10" stroke-linecap="round"/>
<path d="M131.505 53.2334L127.894 54.6326" stroke="#A15842" stroke-width="4" stroke-miterlimit="10" stroke-linecap="round"/>
<path d="M118.039 47.5878C116.929 47.8636 115.803 47.1913 115.527 46.0794C115.515 46.0363 115.506 45.9932 115.498 45.9501" stroke="#30242A" stroke-width="4" stroke-linecap="round" stroke-linejoin="round"/>
<path d="M127.736 58.3217L126.431 63.6514C126.207 64.5363 126.745 65.4356 127.627 65.6568C127.886 65.7229 128.159 65.7229 128.42 65.6626L133.292 64.5133C134.18 64.2979 134.724 63.4043 134.508 62.5194C134.448 62.2665 134.324 62.0281 134.155 61.8298L130.588 57.6609C129.993 56.9685 128.949 56.8909 128.257 57.4885C128.004 57.7069 127.823 57.9971 127.736 58.3217Z" fill="#F4E6D8"/>
<path d="M138.71 182.16C135.859 178.738 125.94 166.357 125.94 166.357" stroke="#30242A" stroke-width="4" stroke-linecap="round" stroke-linejoin="round"/>
<path d="M215.74 154.399C214.694 151.572 212.774 146.834 210.405 141.146L184.986 148.561L182.071 149.481C183.382 157.953 184.388 162.085 184.388 162.085C184.388 162.085 157.019 137.005 143.619 133.586H109.393L97.7034 201.984H199.768C228.861 201.984 220.592 167.501 215.74 154.399Z" fill="#4856DF"/>
<path d="M188.064 89.0327C187.383 87.4094 185.647 86.49 183.919 86.8405C178.852 87.9725 178.458 97.563 177.257 103.091C175.262 112.213 170.985 115.632 170.701 121.617C170.413 127.363 179.539 129.596 179.539 129.596C179.849 132.604 180.165 135.399 180.484 137.977L205.887 130.386C198.92 113.969 190.668 95.0031 188.064 89.0327Z" fill="#A15842"/>
<path d="M182.057 149.414V149.481L184.971 148.561L182.057 149.414Z" fill="#A15842"/>
<path d="M210.411 141.137C210.336 140.962 210.265 140.783 210.19 140.605L184.986 148.561L210.411 141.137Z" fill="#3EC1F3"/>
<path d="M210.19 140.608C208.865 137.431 207.405 133.968 205.878 130.389L180.476 137.979C181.019 142.415 181.557 146.222 182.048 149.417L184.974 148.555L210.19 140.608Z" fill="#3EC1F3"/>
<path d="M133.174 133.497C142.286 143.05 189.4 191.477 204.056 186.593C214.757 183.027 199 147.897 197.5 143.275" stroke="#3EC1F3" stroke-width="4" stroke-linecap="round" stroke-linejoin="round"/>
<path d="M196.77 172.385C193.467 169.426 187.572 164.148 184.439 161.361" stroke="#30242A" stroke-width="4" stroke-linecap="round" stroke-linejoin="round"/>
<path d="M178.398 123.042L178.955 128.998" stroke="#30242A" stroke-width="4" stroke-linecap="round" stroke-linejoin="round"/>
<path d="M185.56 87.3462L186.641 90.3745" stroke="#30242A" stroke-width="4" stroke-linecap="round" stroke-linejoin="round"/>
<path d="M182.974 87.6334L184.721 91.9288" stroke="#30242A" stroke-width="4" stroke-linecap="round" stroke-linejoin="round"/>
<path d="M116.731 171.592L116.57 171.543L122.517 133.529H109.393C109.393 133.529 56.9466 153.537 44.9725 172.629C33.6537 190.676 54.3799 201.984 60.367 201.984H112.583L116.731 171.592Z" fill="#4856DF"/>
<path d="M171.839 201.984C178.682 201.984 176.403 194.287 171.551 191.724C166.7 189.161 161.003 186.593 155.016 178.614C149.029 170.635 141.901 172.629 137.339 178.327C137.339 178.327 133.861 177.077 128.751 175.382L124.75 201.981L171.839 201.984Z" fill="#CA7358"/>
<path d="M117.231 171.742L116.731 171.592L112.583 201.984H124.753L128.754 175.373C125.431 174.284 121.422 172.994 117.231 171.742Z" fill="#3EC1F3"/>
<path d="M168.703 198.85L172.914 201.41" stroke="#30242A" stroke-width="4" stroke-linecap="round" stroke-linejoin="round"/>
<path d="M88.592 164.935C100.566 167.214 105.746 168.67 116.579 172.118" stroke="#30242A" stroke-width="4" stroke-linecap="round" stroke-linejoin="round"/>
<path d="M165.283 200.275L167.74 201.697" stroke="#30242A" stroke-width="4" stroke-linecap="round" stroke-linejoin="round"/>
<path d="M137.914 177.973L141.904 179.47" stroke="#30242A" stroke-width="4" stroke-linecap="round" stroke-linejoin="round"/>
<path d="M234.098 70.5786C234.707 66.9814 237.478 52.7134 244.258 44.9933" stroke="#30242A" stroke-width="4" stroke-miterlimit="10" stroke-linecap="round"/>
<path d="M248.43 57.447C254.35 54.8888 258.683 51.7357 258.107 50.4045C257.531 49.0732 252.265 50.0679 246.345 52.6261C240.425 55.1843 236.093 58.3374 236.668 59.6686C237.244 60.9999 242.51 60.0052 248.43 57.447Z" fill="#30242A"/>
<path d="M249.031 20.2012C251.172 17.3471 252.1 14.4285 251.104 13.6822C250.109 12.9359 247.566 14.6445 245.425 17.4986C243.285 20.3526 242.356 23.2713 243.352 24.0176C244.348 24.7639 246.891 23.0552 249.031 20.2012Z" fill="#30242A"/>
<path d="M260.578 39.4395C260.161 38.0834 257.46 37.6467 254.039 38.2184C256.543 34.8368 257.577 31.5355 256.339 30.4926C255.1 29.4496 252.027 31.0241 249.107 34.0553C249.107 30.5903 248.213 27.9987 246.808 27.8177C245.014 27.585 243.048 31.3631 242.416 36.2532C242.229 37.6496 242.177 39.0603 242.261 40.4681C245.006 39.609 247.929 41.1375 248.788 43.8814C249.006 44.5738 249.075 45.3036 248.992 46.0247C250.349 45.8667 251.688 45.5852 252.993 45.1829C257.704 43.7406 261.101 41.1692 260.578 39.4395Z" fill="#FFBE21"/>
<path d="M247.17 41.4565C245.81 40.3073 243.954 39.9338 242.255 40.4682C242.407 42.7983 242.985 44.5854 243.867 45.2519C244.687 46.0248 246.601 46.292 248.986 46.0248C249.185 44.2952 248.504 42.5799 247.17 41.4565Z" fill="#30242A"/>
<path d="M232.218 70.1217C232.02 66.0361 230.833 45.9874 226.383 34.1472" stroke="#30242A" stroke-width="4" stroke-miterlimit="10" stroke-linecap="round"/>
<path d="M217.54 58.6227C225.185 57.1663 231.174 54.8913 230.917 53.5415C230.66 52.1917 224.253 52.2781 216.608 53.7345C208.963 55.1909 202.974 57.4658 203.231 58.8157C203.488 60.1655 209.895 60.0791 217.54 58.6227Z" fill="#30242A"/>
<path d="M229.646 17.098C228.26 16.7935 226.556 18.9368 225.374 22.1949C223.65 18.3564 221.282 15.8367 219.77 16.3998C218.258 16.963 218.111 20.4222 219.327 24.4446C216.3 22.7552 213.61 22.2524 212.762 23.3902C211.679 24.8267 214.007 28.4038 217.962 31.3545C219.088 32.2021 220.293 32.9405 221.56 33.5582C222.155 30.7454 224.92 28.9497 227.734 29.5444C228.444 29.6938 229.117 29.9926 229.706 30.4179C230.232 29.1594 230.643 27.8521 230.933 26.519C231.988 21.7036 231.413 17.4859 229.646 17.098Z" fill="#FFBE21"/>
<path d="M224.834 29.7628C223.164 30.3834 221.928 31.8171 221.56 33.5611C223.667 34.5696 225.507 34.9431 226.521 34.5035C227.596 34.1644 228.769 32.6273 229.706 30.4208C228.295 29.4008 226.467 29.1537 224.834 29.7628Z" fill="#30242A"/>
<path d="M211.569 38.4512V38.4684C213.923 39.7987 214.869 42.7092 213.745 45.1686C212.619 47.6251 209.802 48.8117 207.255 47.9067V47.9268C213.688 50.866 219.87 51.1246 221.052 48.5014C222.233 45.8782 218.002 41.3875 211.569 38.4512Z" fill="#FFBE21"/>
<path d="M212.087 47.1941C210.868 46.5132 210.434 44.9703 211.115 43.7521C211.722 42.6689 213.027 42.1862 214.194 42.6143C214.061 40.8789 213.076 39.3246 211.561 38.4684L207.249 47.9066C208.882 48.4899 210.696 48.2227 212.087 47.1941Z" fill="#F5EBDD"/>
<path d="M211.023 43.9389C210.477 45.1341 210.94 46.5506 212.087 47.1942C213.533 46.134 214.329 44.4015 214.194 42.6144C212.955 42.1633 211.575 42.7379 211.023 43.9389Z" fill="#30242A"/>
</svg>
